<mxfile host="app.diagrams.net" agent="Mozilla/5.0 (Windows NT 10.0; Win64; x64) AppleWebKit/537.36 (KHTML, like Gecko) Chrome/131.0.0.0 Safari/537.36" version="25.0.3">
  <diagram name="Page-1" id="BCJUQS5sVIFIiA6CkIwf">
    <mxGraphModel dx="1877" dy="1726" grid="1" gridSize="10" guides="1" tooltips="1" connect="1" arrows="1" fold="1" page="1" pageScale="1" pageWidth="827" pageHeight="1169" math="0" shadow="0">
      <root>
        <mxCell id="0" />
        <mxCell id="1" parent="0" />
        <mxCell id="SyZKQMgw6pQfzpvTB0Nx-2" value="" style="whiteSpace=wrap;html=1;aspect=fixed;" parent="1" vertex="1">
          <mxGeometry x="5" y="-310" width="790" height="790" as="geometry" />
        </mxCell>
        <mxCell id="SyZKQMgw6pQfzpvTB0Nx-4" value="Loan Management System" style="text;html=1;align=center;verticalAlign=middle;whiteSpace=wrap;rounded=0;" parent="1" vertex="1">
          <mxGeometry x="295" y="-300" width="210" height="30" as="geometry" />
        </mxCell>
        <mxCell id="SyZKQMgw6pQfzpvTB0Nx-7" value="Login" style="ellipse;whiteSpace=wrap;html=1;" parent="1" vertex="1">
          <mxGeometry x="180" y="-230" width="80" height="40" as="geometry" />
        </mxCell>
        <mxCell id="SyZKQMgw6pQfzpvTB0Nx-8" value="Apply for Loan" style="ellipse;whiteSpace=wrap;html=1;" parent="1" vertex="1">
          <mxGeometry x="180" y="-130" width="90" height="40" as="geometry" />
        </mxCell>
        <mxCell id="SyZKQMgw6pQfzpvTB0Nx-9" value="View Profile" style="ellipse;whiteSpace=wrap;html=1;" parent="1" vertex="1">
          <mxGeometry x="180" y="-180" width="80" height="40" as="geometry" />
        </mxCell>
        <mxCell id="SyZKQMgw6pQfzpvTB0Nx-10" value="Upload Documents" style="ellipse;whiteSpace=wrap;html=1;" parent="1" vertex="1">
          <mxGeometry x="185" y="-70" width="80" height="40" as="geometry" />
        </mxCell>
        <mxCell id="SyZKQMgw6pQfzpvTB0Nx-11" value="Make Repayments" style="ellipse;whiteSpace=wrap;html=1;" parent="1" vertex="1">
          <mxGeometry x="180" y="50" width="100" height="50" as="geometry" />
        </mxCell>
        <mxCell id="SyZKQMgw6pQfzpvTB0Nx-12" value="Ask Question / Queries" style="ellipse;whiteSpace=wrap;html=1;" parent="1" vertex="1">
          <mxGeometry x="185" y="190" width="105" height="50" as="geometry" />
        </mxCell>
        <mxCell id="SyZKQMgw6pQfzpvTB0Nx-13" value="View Loan Status" style="ellipse;whiteSpace=wrap;html=1;" parent="1" vertex="1">
          <mxGeometry x="195" y="-10" width="80" height="40" as="geometry" />
        </mxCell>
        <mxCell id="SyZKQMgw6pQfzpvTB0Nx-14" value="Receive Notifications" style="ellipse;whiteSpace=wrap;html=1;" parent="1" vertex="1">
          <mxGeometry x="185" y="110" width="90" height="50" as="geometry" />
        </mxCell>
        <mxCell id="SyZKQMgw6pQfzpvTB0Nx-15" value="Remove Loan Products" style="ellipse;whiteSpace=wrap;html=1;" parent="1" vertex="1">
          <mxGeometry x="550" y="-137.5" width="90" height="50" as="geometry" />
        </mxCell>
        <mxCell id="SyZKQMgw6pQfzpvTB0Nx-16" value="Update Loan Products" style="ellipse;whiteSpace=wrap;html=1;" parent="1" vertex="1">
          <mxGeometry x="545" y="-200" width="90" height="50" as="geometry" />
        </mxCell>
        <mxCell id="SyZKQMgw6pQfzpvTB0Nx-17" value="Add Loan Products" style="ellipse;whiteSpace=wrap;html=1;" parent="1" vertex="1">
          <mxGeometry x="550" y="-250" width="80" height="40" as="geometry" />
        </mxCell>
        <mxCell id="SyZKQMgw6pQfzpvTB0Nx-19" value="Review / Approve Loans" style="ellipse;whiteSpace=wrap;html=1;" parent="1" vertex="1">
          <mxGeometry x="540" y="160" width="90" height="60" as="geometry" />
        </mxCell>
        <mxCell id="SyZKQMgw6pQfzpvTB0Nx-20" value="Handle Employees" style="ellipse;whiteSpace=wrap;html=1;" parent="1" vertex="1">
          <mxGeometry x="550" y="100" width="80" height="40" as="geometry" />
        </mxCell>
        <mxCell id="SyZKQMgw6pQfzpvTB0Nx-21" value="Register New Users" style="ellipse;whiteSpace=wrap;html=1;" parent="1" vertex="1">
          <mxGeometry x="545" y="35" width="90" height="50" as="geometry" />
        </mxCell>
        <mxCell id="SyZKQMgw6pQfzpvTB0Nx-22" value="Configure Criteria" style="ellipse;whiteSpace=wrap;html=1;" parent="1" vertex="1">
          <mxGeometry x="550" y="-20" width="80" height="40" as="geometry" />
        </mxCell>
        <mxCell id="SyZKQMgw6pQfzpvTB0Nx-23" value="Define Interest Rates&amp;nbsp;" style="ellipse;whiteSpace=wrap;html=1;" parent="1" vertex="1">
          <mxGeometry x="545" y="-80" width="90" height="50" as="geometry" />
        </mxCell>
        <mxCell id="SyZKQMgw6pQfzpvTB0Nx-24" value="Monitor Repayment" style="ellipse;whiteSpace=wrap;html=1;" parent="1" vertex="1">
          <mxGeometry x="550" y="330" width="85" height="50" as="geometry" />
        </mxCell>
        <mxCell id="SyZKQMgw6pQfzpvTB0Nx-25" value="Assist Customers" style="ellipse;whiteSpace=wrap;html=1;" parent="1" vertex="1">
          <mxGeometry x="550" y="280" width="80" height="40" as="geometry" />
        </mxCell>
        <mxCell id="SyZKQMgw6pQfzpvTB0Nx-26" value="Verify Customers" style="ellipse;whiteSpace=wrap;html=1;" parent="1" vertex="1">
          <mxGeometry x="547.5" y="230" width="85" height="40" as="geometry" />
        </mxCell>
        <mxCell id="SyZKQMgw6pQfzpvTB0Nx-27" value="Notify Customers" style="ellipse;whiteSpace=wrap;html=1;" parent="1" vertex="1">
          <mxGeometry x="552.5" y="390" width="80" height="40" as="geometry" />
        </mxCell>
        <mxCell id="wWL5iFYLyrxjmq5AH68L-9" value="Customer" style="text;html=1;align=center;verticalAlign=middle;whiteSpace=wrap;rounded=0;" parent="1" vertex="1">
          <mxGeometry x="-170" y="110" width="85" height="50" as="geometry" />
        </mxCell>
        <mxCell id="wWL5iFYLyrxjmq5AH68L-12" value="" style="ellipse;whiteSpace=wrap;html=1;aspect=fixed;" parent="1" vertex="1">
          <mxGeometry x="-145" y="-50" width="50" height="50" as="geometry" />
        </mxCell>
        <mxCell id="wWL5iFYLyrxjmq5AH68L-13" value="" style="endArrow=none;html=1;rounded=0;" parent="1" edge="1">
          <mxGeometry width="50" height="50" relative="1" as="geometry">
            <mxPoint x="-120" y="80" as="sourcePoint" />
            <mxPoint x="-120" as="targetPoint" />
          </mxGeometry>
        </mxCell>
        <mxCell id="wWL5iFYLyrxjmq5AH68L-14" value="" style="endArrow=none;html=1;rounded=0;" parent="1" edge="1">
          <mxGeometry width="50" height="50" relative="1" as="geometry">
            <mxPoint x="-170" y="20" as="sourcePoint" />
            <mxPoint x="-70" y="20" as="targetPoint" />
            <Array as="points">
              <mxPoint x="-120" y="20" />
            </Array>
          </mxGeometry>
        </mxCell>
        <mxCell id="wWL5iFYLyrxjmq5AH68L-15" value="" style="endArrow=none;html=1;rounded=0;" parent="1" edge="1">
          <mxGeometry width="50" height="50" relative="1" as="geometry">
            <mxPoint x="-170" y="110" as="sourcePoint" />
            <mxPoint x="-80" y="110" as="targetPoint" />
            <Array as="points">
              <mxPoint x="-120" y="80" />
            </Array>
          </mxGeometry>
        </mxCell>
        <mxCell id="wWL5iFYLyrxjmq5AH68L-16" value="" style="ellipse;whiteSpace=wrap;html=1;aspect=fixed;" parent="1" vertex="1">
          <mxGeometry x="900" y="-140" width="55" height="55" as="geometry" />
        </mxCell>
        <mxCell id="wWL5iFYLyrxjmq5AH68L-17" value="" style="endArrow=none;html=1;rounded=0;" parent="1" edge="1">
          <mxGeometry width="50" height="50" relative="1" as="geometry">
            <mxPoint x="930" y="-5" as="sourcePoint" />
            <mxPoint x="930" y="-85" as="targetPoint" />
          </mxGeometry>
        </mxCell>
        <mxCell id="wWL5iFYLyrxjmq5AH68L-18" value="" style="endArrow=none;html=1;rounded=0;" parent="1" edge="1">
          <mxGeometry width="50" height="50" relative="1" as="geometry">
            <mxPoint x="880" y="-65" as="sourcePoint" />
            <mxPoint x="980" y="-65" as="targetPoint" />
            <Array as="points">
              <mxPoint x="930" y="-65" />
            </Array>
          </mxGeometry>
        </mxCell>
        <mxCell id="wWL5iFYLyrxjmq5AH68L-19" value="" style="endArrow=none;html=1;rounded=0;" parent="1" edge="1">
          <mxGeometry width="50" height="50" relative="1" as="geometry">
            <mxPoint x="880" y="25" as="sourcePoint" />
            <mxPoint x="970" y="25" as="targetPoint" />
            <Array as="points">
              <mxPoint x="930" y="-5" />
            </Array>
          </mxGeometry>
        </mxCell>
        <mxCell id="wWL5iFYLyrxjmq5AH68L-28" value="" style="ellipse;whiteSpace=wrap;html=1;aspect=fixed;" parent="1" vertex="1">
          <mxGeometry x="902.5" y="100" width="50" height="50" as="geometry" />
        </mxCell>
        <mxCell id="wWL5iFYLyrxjmq5AH68L-29" value="" style="endArrow=none;html=1;rounded=0;" parent="1" edge="1">
          <mxGeometry width="50" height="50" relative="1" as="geometry">
            <mxPoint x="927.5" y="230" as="sourcePoint" />
            <mxPoint x="927.5" y="150" as="targetPoint" />
          </mxGeometry>
        </mxCell>
        <mxCell id="wWL5iFYLyrxjmq5AH68L-30" value="" style="endArrow=none;html=1;rounded=0;" parent="1" edge="1">
          <mxGeometry width="50" height="50" relative="1" as="geometry">
            <mxPoint x="877.5" y="170" as="sourcePoint" />
            <mxPoint x="977.5" y="170" as="targetPoint" />
            <Array as="points">
              <mxPoint x="927.5" y="170" />
            </Array>
          </mxGeometry>
        </mxCell>
        <mxCell id="wWL5iFYLyrxjmq5AH68L-31" value="" style="endArrow=none;html=1;rounded=0;" parent="1" edge="1">
          <mxGeometry width="50" height="50" relative="1" as="geometry">
            <mxPoint x="877.5" y="260" as="sourcePoint" />
            <mxPoint x="967.5" y="260" as="targetPoint" />
            <Array as="points">
              <mxPoint x="927.5" y="230" />
            </Array>
          </mxGeometry>
        </mxCell>
        <mxCell id="wWL5iFYLyrxjmq5AH68L-33" value="Admin User" style="text;html=1;align=center;verticalAlign=middle;whiteSpace=wrap;rounded=0;" parent="1" vertex="1">
          <mxGeometry x="880" y="35" width="85" height="50" as="geometry" />
        </mxCell>
        <mxCell id="wWL5iFYLyrxjmq5AH68L-34" value="Loan Officer" style="text;html=1;align=center;verticalAlign=middle;whiteSpace=wrap;rounded=0;" parent="1" vertex="1">
          <mxGeometry x="885" y="280" width="85" height="50" as="geometry" />
        </mxCell>
        <mxCell id="wWL5iFYLyrxjmq5AH68L-35" value="" style="endArrow=none;html=1;rounded=0;exitX=0;exitY=0.5;exitDx=0;exitDy=0;" parent="1" source="SyZKQMgw6pQfzpvTB0Nx-7" edge="1">
          <mxGeometry width="50" height="50" relative="1" as="geometry">
            <mxPoint x="510" y="150" as="sourcePoint" />
            <mxPoint x="-70" y="20" as="targetPoint" />
          </mxGeometry>
        </mxCell>
        <mxCell id="wWL5iFYLyrxjmq5AH68L-36" value="" style="endArrow=none;html=1;rounded=0;entryX=0;entryY=0.5;entryDx=0;entryDy=0;" parent="1" target="SyZKQMgw6pQfzpvTB0Nx-9" edge="1">
          <mxGeometry width="50" height="50" relative="1" as="geometry">
            <mxPoint x="-70" y="20" as="sourcePoint" />
            <mxPoint x="560" y="100" as="targetPoint" />
          </mxGeometry>
        </mxCell>
        <mxCell id="wWL5iFYLyrxjmq5AH68L-37" value="" style="endArrow=none;html=1;rounded=0;entryX=0;entryY=0.5;entryDx=0;entryDy=0;" parent="1" target="SyZKQMgw6pQfzpvTB0Nx-8" edge="1">
          <mxGeometry width="50" height="50" relative="1" as="geometry">
            <mxPoint x="-70" y="20" as="sourcePoint" />
            <mxPoint x="560" y="100" as="targetPoint" />
          </mxGeometry>
        </mxCell>
        <mxCell id="wWL5iFYLyrxjmq5AH68L-38" value="" style="endArrow=none;html=1;rounded=0;entryX=0;entryY=0.5;entryDx=0;entryDy=0;" parent="1" target="SyZKQMgw6pQfzpvTB0Nx-10" edge="1">
          <mxGeometry width="50" height="50" relative="1" as="geometry">
            <mxPoint x="-70" y="20" as="sourcePoint" />
            <mxPoint x="190" y="-100" as="targetPoint" />
          </mxGeometry>
        </mxCell>
        <mxCell id="wWL5iFYLyrxjmq5AH68L-39" value="" style="endArrow=none;html=1;rounded=0;entryX=0.08;entryY=0.232;entryDx=0;entryDy=0;entryPerimeter=0;" parent="1" target="SyZKQMgw6pQfzpvTB0Nx-12" edge="1">
          <mxGeometry width="50" height="50" relative="1" as="geometry">
            <mxPoint x="-70" y="20" as="sourcePoint" />
            <mxPoint x="180" y="190" as="targetPoint" />
          </mxGeometry>
        </mxCell>
        <mxCell id="wWL5iFYLyrxjmq5AH68L-40" value="" style="endArrow=none;html=1;rounded=0;entryX=0;entryY=0.5;entryDx=0;entryDy=0;" parent="1" target="SyZKQMgw6pQfzpvTB0Nx-13" edge="1">
          <mxGeometry width="50" height="50" relative="1" as="geometry">
            <mxPoint x="-70" y="20" as="sourcePoint" />
            <mxPoint x="210" y="-80" as="targetPoint" />
          </mxGeometry>
        </mxCell>
        <mxCell id="wWL5iFYLyrxjmq5AH68L-41" value="" style="endArrow=none;html=1;rounded=0;entryX=0;entryY=0.5;entryDx=0;entryDy=0;" parent="1" target="SyZKQMgw6pQfzpvTB0Nx-11" edge="1">
          <mxGeometry width="50" height="50" relative="1" as="geometry">
            <mxPoint x="-70" y="20" as="sourcePoint" />
            <mxPoint x="220" y="-70" as="targetPoint" />
          </mxGeometry>
        </mxCell>
        <mxCell id="wWL5iFYLyrxjmq5AH68L-42" value="" style="endArrow=none;html=1;rounded=0;entryX=0;entryY=0.5;entryDx=0;entryDy=0;" parent="1" target="SyZKQMgw6pQfzpvTB0Nx-14" edge="1">
          <mxGeometry width="50" height="50" relative="1" as="geometry">
            <mxPoint x="-70" y="20" as="sourcePoint" />
            <mxPoint x="230" y="-60" as="targetPoint" />
          </mxGeometry>
        </mxCell>
        <mxCell id="wWL5iFYLyrxjmq5AH68L-43" value="" style="endArrow=none;html=1;rounded=0;entryX=1;entryY=0.5;entryDx=0;entryDy=0;" parent="1" target="SyZKQMgw6pQfzpvTB0Nx-17" edge="1">
          <mxGeometry width="50" height="50" relative="1" as="geometry">
            <mxPoint x="880" y="-60" as="sourcePoint" />
            <mxPoint x="560" y="100" as="targetPoint" />
          </mxGeometry>
        </mxCell>
        <mxCell id="wWL5iFYLyrxjmq5AH68L-44" value="" style="endArrow=none;html=1;rounded=0;entryX=1;entryY=0.5;entryDx=0;entryDy=0;" parent="1" target="SyZKQMgw6pQfzpvTB0Nx-22" edge="1">
          <mxGeometry width="50" height="50" relative="1" as="geometry">
            <mxPoint x="880" y="-60" as="sourcePoint" />
            <mxPoint x="640" y="-200" as="targetPoint" />
          </mxGeometry>
        </mxCell>
        <mxCell id="wWL5iFYLyrxjmq5AH68L-45" value="" style="endArrow=none;html=1;rounded=0;entryX=1;entryY=0.5;entryDx=0;entryDy=0;" parent="1" target="SyZKQMgw6pQfzpvTB0Nx-23" edge="1">
          <mxGeometry width="50" height="50" relative="1" as="geometry">
            <mxPoint x="880" y="-60" as="sourcePoint" />
            <mxPoint x="650" y="-190" as="targetPoint" />
          </mxGeometry>
        </mxCell>
        <mxCell id="wWL5iFYLyrxjmq5AH68L-46" value="" style="endArrow=none;html=1;rounded=0;entryX=1;entryY=0.5;entryDx=0;entryDy=0;" parent="1" target="SyZKQMgw6pQfzpvTB0Nx-15" edge="1">
          <mxGeometry width="50" height="50" relative="1" as="geometry">
            <mxPoint x="880" y="-60" as="sourcePoint" />
            <mxPoint x="660" y="-180" as="targetPoint" />
          </mxGeometry>
        </mxCell>
        <mxCell id="wWL5iFYLyrxjmq5AH68L-47" value="" style="endArrow=none;html=1;rounded=0;entryX=1;entryY=0.5;entryDx=0;entryDy=0;" parent="1" target="SyZKQMgw6pQfzpvTB0Nx-16" edge="1">
          <mxGeometry width="50" height="50" relative="1" as="geometry">
            <mxPoint x="880" y="-60" as="sourcePoint" />
            <mxPoint x="670" y="-170" as="targetPoint" />
          </mxGeometry>
        </mxCell>
        <mxCell id="wWL5iFYLyrxjmq5AH68L-48" value="" style="endArrow=none;html=1;rounded=0;entryX=1;entryY=0.5;entryDx=0;entryDy=0;" parent="1" target="SyZKQMgw6pQfzpvTB0Nx-20" edge="1">
          <mxGeometry width="50" height="50" relative="1" as="geometry">
            <mxPoint x="880" y="-60" as="sourcePoint" />
            <mxPoint x="680" y="-160" as="targetPoint" />
          </mxGeometry>
        </mxCell>
        <mxCell id="wWL5iFYLyrxjmq5AH68L-49" value="" style="endArrow=none;html=1;rounded=0;entryX=1;entryY=0.5;entryDx=0;entryDy=0;" parent="1" target="SyZKQMgw6pQfzpvTB0Nx-21" edge="1">
          <mxGeometry width="50" height="50" relative="1" as="geometry">
            <mxPoint x="880" y="-60" as="sourcePoint" />
            <mxPoint x="690" y="-150" as="targetPoint" />
          </mxGeometry>
        </mxCell>
        <mxCell id="wWL5iFYLyrxjmq5AH68L-50" value="" style="endArrow=none;html=1;rounded=0;entryX=1;entryY=0.5;entryDx=0;entryDy=0;" parent="1" target="SyZKQMgw6pQfzpvTB0Nx-25" edge="1">
          <mxGeometry width="50" height="50" relative="1" as="geometry">
            <mxPoint x="880" y="170" as="sourcePoint" />
            <mxPoint x="700" y="-140" as="targetPoint" />
          </mxGeometry>
        </mxCell>
        <mxCell id="wWL5iFYLyrxjmq5AH68L-51" value="" style="endArrow=none;html=1;rounded=0;entryX=1;entryY=0.5;entryDx=0;entryDy=0;" parent="1" target="SyZKQMgw6pQfzpvTB0Nx-27" edge="1">
          <mxGeometry width="50" height="50" relative="1" as="geometry">
            <mxPoint x="880" y="170" as="sourcePoint" />
            <mxPoint x="710" y="-130" as="targetPoint" />
          </mxGeometry>
        </mxCell>
        <mxCell id="wWL5iFYLyrxjmq5AH68L-52" value="" style="endArrow=none;html=1;rounded=0;entryX=1;entryY=0.5;entryDx=0;entryDy=0;" parent="1" target="SyZKQMgw6pQfzpvTB0Nx-24" edge="1">
          <mxGeometry width="50" height="50" relative="1" as="geometry">
            <mxPoint x="880" y="170" as="sourcePoint" />
            <mxPoint x="720" y="-120" as="targetPoint" />
          </mxGeometry>
        </mxCell>
        <mxCell id="wWL5iFYLyrxjmq5AH68L-53" value="" style="endArrow=none;html=1;rounded=0;entryX=1;entryY=0.5;entryDx=0;entryDy=0;" parent="1" target="SyZKQMgw6pQfzpvTB0Nx-26" edge="1">
          <mxGeometry width="50" height="50" relative="1" as="geometry">
            <mxPoint x="880" y="170" as="sourcePoint" />
            <mxPoint x="730" y="-110" as="targetPoint" />
          </mxGeometry>
        </mxCell>
        <mxCell id="wWL5iFYLyrxjmq5AH68L-54" value="" style="endArrow=none;html=1;rounded=0;entryX=1;entryY=0.5;entryDx=0;entryDy=0;" parent="1" target="SyZKQMgw6pQfzpvTB0Nx-19" edge="1">
          <mxGeometry width="50" height="50" relative="1" as="geometry">
            <mxPoint x="880" y="170" as="sourcePoint" />
            <mxPoint x="740" y="-100" as="targetPoint" />
          </mxGeometry>
        </mxCell>
      </root>
    </mxGraphModel>
  </diagram>
</mxfile>
